<?xml version="1.0" encoding="utf-8"?>
<!-- Generator: Adobe Illustrator 23.0.0, SVG Export Plug-In . SVG Version: 6.00 Build 0)  -->
<svg version="1.1" id="圖層_1" xmlns="http://www.w3.org/2000/svg" xmlns:xlink="http://www.w3.org/1999/xlink" x="0px" y="0px"
	 viewBox="0 0 750 1334" style="enable-background:new 0 0 750 1334;" xml:space="preserve">
<style type="text/css">
	.st0{fill:#29ABE2;stroke:#000000;stroke-miterlimit:10;}
</style>
<circle class="st0" cx="375.3" cy="227" r="117.5"/>
<circle class="st0" cx="124.2" cy="663.6" r="58.7"/>
<circle class="st0" cx="626.3" cy="663.6" r="58.7"/>
<path class="st0" d="M151.7,544.5l35,27.7c6.9,5.5,17,4.3,22.5-2.6l16.5-20.8v97.7h299.1v-94.8l14.2,17.9c5.5,6.9,15.6,8.1,22.5,2.6
	l35-27.7H151.7z"/>
<path class="st0" d="M225.7,720.2c0,27.6,22.6,50.2,50.2,50.2h198.6c27.6,0,50.2-22.6,50.2-50.2v-73.7H225.7V720.2z"/>
<path class="st0" d="M516.2,388.1c-1.5-2.2-3.1-4.2-4.8-6.1l-1.8-2.3c-1.7-2.1-3.8-3.7-6.2-4.7c-8.2-5.8-18.2-9.2-28.9-9.2H275.9
	c-10,0-19.4,3-27.2,8.1c-3.9,0.6-7.5,2.6-10.1,5.8l-58.4,73.7h387.9L516.2,388.1z"/>
<path class="st0" d="M610.8,533.2c6.9-5.5,8.1-15.6,2.6-22.5l-45.3-57.2H180.2l-45.3,57.2c-5.5,6.9-4.3,17,2.6,22.5l14.3,11.3h444.7
	L610.8,533.2z"/>
<path class="st0" d="M527.9,830.7c-0.6-1.4-1.4-2.6-2.3-3.7c-2.7-5.1-8-8.6-14.2-8.6h-267c-3.9,0-7.5,1.4-10.3,3.7
	c-4,1.4-7.4,4.4-9.3,8.5l-41.5,92.8h386L527.9,830.7z"/>
<path class="st0" d="M610.1,1014.5l-40.7-91h-386l-40.7,91c-1.5,3.4-1.7,7.1-0.9,10.5c-0.1,0.8-0.2,1.6-0.2,2.4
	c0,8.4,6.9,15.4,15.4,15.4h437.9c8.4,0,15.4-6.9,15.4-15.4c0-0.1,0-0.1,0-0.2C611.9,1023.2,612,1018.7,610.1,1014.5z"/>
</svg>
